<svg width="80" height="80" viewBox="0 0 80 80" fill="none" xmlns="http://www.w3.org/2000/svg">
<path d="M17.735 37.0701H10.7037C9.73498 37.0701 8.94623 37.8588 8.94623 38.8276V43.5151C8.94623 44.4838 9.73498 45.2726 10.7037 45.2726H17.735C18.7037 45.2726 19.4925 44.4838 19.4925 43.5151V38.8276C19.4925 37.8588 18.7037 37.0701 17.735 37.0701ZM13.6325 44.1013H10.7037C10.5483 44.101 10.3994 44.0391 10.2896 43.9292C10.1797 43.8194 10.1178 43.6704 10.1175 43.5151V38.8276C10.1178 38.6722 10.1797 38.5233 10.2896 38.4134C10.3994 38.3035 10.5483 38.2416 10.7037 38.2413H13.6337L13.6325 44.1013ZM18.32 43.5163C18.3196 43.6717 18.2578 43.8206 18.1479 43.9305C18.038 44.0404 17.8891 44.1022 17.7337 44.1026H14.8037V38.2426H17.7337C17.8891 38.2429 18.038 38.3048 18.1479 38.4146C18.2578 38.5245 18.3196 38.6734 18.32 38.8288V43.5163Z" fill="#0D4E9E"/>
<path d="M17.735 49.375H10.7037C9.73498 49.375 8.94623 50.1637 8.94623 51.1325V55.82C8.94623 56.7887 9.73498 57.5775 10.7037 57.5775H17.735C18.7037 57.5775 19.4925 56.7887 19.4925 55.82V51.1325C19.4925 50.1637 18.7037 49.375 17.735 49.375ZM13.6325 56.4062H10.7037C10.5483 56.4059 10.3994 56.3441 10.2896 56.2342C10.1797 56.1243 10.1178 55.9754 10.1175 55.82V51.1325C10.1178 50.9771 10.1797 50.8282 10.2896 50.7183C10.3994 50.6085 10.5483 50.5466 10.7037 50.5463H13.6337L13.6325 56.4062ZM18.32 55.82C18.3196 55.9754 18.2578 56.1243 18.1479 56.2342C18.038 56.3441 17.8891 56.4059 17.7337 56.4062H14.8037V50.5463H17.7337C17.8891 50.5466 18.038 50.6085 18.1479 50.7183C18.2578 50.8282 18.3196 50.9771 18.32 51.1325V55.82Z" fill="#0D4E9E"/>
<path d="M17.735 61.0938H10.7037C9.73498 61.0938 8.94623 61.8825 8.94623 62.8512V67.5387C8.94623 68.5075 9.73498 69.2963 10.7037 69.2963H17.735C18.7037 69.2963 19.4925 68.5075 19.4925 67.5387V62.8512C19.4925 61.8825 18.7037 61.0938 17.735 61.0938ZM13.6325 68.125H10.7037C10.5483 68.1247 10.3994 68.0628 10.2896 67.9529C10.1797 67.8431 10.1178 67.6941 10.1175 67.5387V62.8512C10.1178 62.6959 10.1797 62.5469 10.2896 62.4371C10.3994 62.3272 10.5483 62.2653 10.7037 62.265H13.6337L13.6325 68.125ZM18.32 67.5387C18.3196 67.6941 18.2578 67.8431 18.1479 67.9529C18.038 68.0628 17.8891 68.1247 17.7337 68.125H14.8037V62.265H17.7337C17.8891 62.2653 18.038 62.3272 18.1479 62.4371C18.2578 62.5469 18.3196 62.6959 18.32 62.8512V67.5387Z" fill="#0D4E9E"/>
<path d="M60.5075 38.8288V43.5163C60.5075 44.485 61.2963 45.2738 62.265 45.2738H69.2963C70.265 45.2738 71.0538 44.485 71.0538 43.5163V38.8288C71.0538 37.86 70.265 37.0713 69.2963 37.0713H62.265C61.799 37.0716 61.3522 37.2569 61.0226 37.5864C60.6931 37.9159 60.5078 38.3628 60.5075 38.8288ZM66.3675 38.2425H69.2975C69.4529 38.2429 69.6018 38.3047 69.7117 38.4146C69.8216 38.5245 69.8834 38.6734 69.8838 38.8288V43.5163C69.8834 43.6717 69.8216 43.8206 69.7117 43.9305C69.6018 44.0403 69.4529 44.1022 69.2975 44.1025H66.3675V38.2425ZM65.195 44.1013H62.265C62.1096 44.101 61.9607 44.0391 61.8508 43.9292C61.741 43.8193 61.6791 43.6704 61.6788 43.515V38.8275C61.6791 38.6722 61.741 38.5232 61.8508 38.4134C61.9607 38.3035 62.1096 38.2416 62.265 38.2413H65.195V44.1013Z" fill="#0D4E9E"/>
<path d="M69.2975 49.375H62.2662C61.2975 49.375 60.5087 50.1637 60.5087 51.1325V55.82C60.5087 56.7887 61.2975 57.5775 62.2662 57.5775H69.2975C70.2662 57.5775 71.055 56.7887 71.055 55.82V51.1325C71.055 50.1637 70.2662 49.375 69.2975 49.375ZM65.195 56.4062H62.265C62.1096 56.4059 61.9607 56.3441 61.8508 56.2342C61.7409 56.1243 61.6791 55.9754 61.6787 55.82V51.1325C61.6791 50.9771 61.7409 50.8282 61.8508 50.7183C61.9607 50.6085 62.1096 50.5466 62.265 50.5463H65.195V56.4062ZM69.8825 55.82C69.8821 55.9754 69.8203 56.1243 69.7104 56.2342C69.6005 56.3441 69.4516 56.4059 69.2962 56.4062H66.3662V50.5463H69.2962C69.4516 50.5466 69.6005 50.6085 69.7104 50.7183C69.8203 50.8282 69.8821 50.9771 69.8825 51.1325V55.82Z" fill="#0D4E9E"/>
<path d="M69.2975 61.0938H62.2662C61.2975 61.0938 60.5087 61.8825 60.5087 62.8512V67.5387C60.5087 68.5075 61.2975 69.2963 62.2662 69.2963H69.2975C70.2662 69.2963 71.055 68.5075 71.055 67.5387V62.8512C71.055 61.8825 70.2662 61.0938 69.2975 61.0938ZM65.195 68.125H62.265C62.1096 68.1247 61.9607 68.0628 61.8508 67.9529C61.7409 67.8431 61.6791 67.6941 61.6787 67.5387V62.8512C61.6791 62.6959 61.7409 62.5469 61.8508 62.4371C61.9607 62.3272 62.1096 62.2653 62.265 62.265H65.195V68.125ZM69.8825 67.5387C69.8821 67.6941 69.8203 67.8431 69.7104 67.9529C69.6005 68.0628 69.4516 68.1247 69.2962 68.125H66.3662V62.265H69.2962C69.4516 62.2653 69.6005 62.3272 69.7104 62.4371C69.8203 62.5469 69.8821 62.6959 69.8825 62.8512V67.5387Z" fill="#0D4E9E"/>
<path d="M28.1237 45.435C27.465 45.2125 27.1737 45.085 27.1737 44.795C27.1737 44.56 27.4162 44.3575 27.92 44.3575C28.4187 44.3575 28.7837 44.485 28.9875 44.5725L29.2462 43.7437C28.8299 43.5844 28.3869 43.5068 27.9412 43.515C26.7325 43.515 26.005 44.1087 26.005 44.8825C26.005 45.5412 26.5587 45.96 27.41 46.2225C28.0237 46.4162 28.2675 46.58 28.2675 46.8625C28.2675 47.1587 27.9862 47.3537 27.455 47.3537C26.9625 47.3537 26.485 47.2137 26.1737 47.0712L25.9387 47.92C26.2262 48.0612 26.8037 48.1962 27.3887 48.1962C28.7925 48.1962 29.4525 47.55 29.4525 46.7887C29.4525 46.1487 29.0275 45.7312 28.1237 45.435Z" fill="#FF8823"/>
<path d="M32.845 44.3651C33.2538 44.3651 33.5813 44.4439 33.815 44.5326L34.05 43.7189C33.8463 43.6239 33.3913 43.5164 32.7913 43.5164C31.2425 43.5164 29.9963 44.3776 29.9963 45.9276C29.9963 47.2214 30.9075 48.1964 32.6775 48.1964C33.3 48.1964 33.7788 48.0964 33.9913 48.0014L33.815 47.2001C33.5031 47.2981 33.1782 47.3482 32.8513 47.3489C31.82 47.3489 31.2125 46.7751 31.2125 45.8664C31.2138 44.8564 31.9275 44.3651 32.845 44.3651Z" fill="#FF8823"/>
<path d="M37.8175 45.3351H35.9112V43.5901H34.7512V48.1288H35.9112V46.2288H37.8175V48.1288H38.9712V43.5901H37.8175V45.3351Z" fill="#FF8823"/>
<path d="M42.235 43.5164C40.725 43.5164 39.7463 44.5326 39.7463 45.8926C39.7463 47.1864 40.6338 48.2039 42.1513 48.2039C43.6475 48.2039 44.6638 47.3001 44.6638 45.8139C44.6625 44.5589 43.8063 43.5164 42.235 43.5164ZM42.2138 47.3889C41.4388 47.3889 40.9688 46.7614 40.9688 45.8726C40.9688 44.9901 41.4238 44.3301 42.205 44.3301C43.0025 44.3301 43.4425 45.0314 43.4425 45.8464C43.4425 46.7289 42.9938 47.3889 42.2138 47.3889Z" fill="#FF8823"/>
<path d="M47.68 43.5164C46.1688 43.5164 45.19 44.5326 45.19 45.8926C45.19 47.1864 46.0775 48.2039 47.595 48.2039C49.0925 48.2039 50.1088 47.3001 50.1088 45.8139C50.1075 44.5589 49.2488 43.5164 47.68 43.5164ZM47.6563 47.3889C46.8813 47.3889 46.4113 46.7614 46.4113 45.8726C46.4113 44.9901 46.8663 44.3301 47.6475 44.3301C48.4463 44.3301 48.885 45.0314 48.885 45.8464C48.885 46.7289 48.4375 47.3889 47.6563 47.3889Z" fill="#FF8823"/>
<path d="M52.0275 43.5901H50.8663V48.1288H54.0625V47.2663H52.0275V43.5901Z" fill="#FF8823"/>
<path d="M48.2038 32.9686C48.2038 31.8913 47.9916 30.8245 47.5793 29.8292C47.167 28.8339 46.5627 27.9295 45.8009 27.1677C45.0392 26.4059 44.1348 25.8016 43.1395 25.3894C42.1441 24.9771 41.0773 24.7649 40 24.7649C38.9227 24.7649 37.8559 24.9771 36.8606 25.3894C35.8653 25.8016 34.9609 26.4059 34.1991 27.1677C33.4373 27.9295 32.833 28.8339 32.4207 29.8292C32.0085 30.8245 31.7963 31.8913 31.7963 32.9686C31.7963 34.046 32.0085 35.1128 32.4207 36.1081C32.833 37.1034 33.4373 38.0078 34.1991 38.7696C34.9609 39.5314 35.8653 40.1356 36.8606 40.5479C37.8559 40.9602 38.9227 41.1724 40 41.1724C41.0773 41.1724 42.1441 40.9602 43.1395 40.5479C44.1348 40.1356 45.0392 39.5314 45.8009 38.7696C46.5627 38.0078 47.167 37.1034 47.5793 36.1081C47.9916 35.1128 48.2038 34.046 48.2038 32.9686ZM34.1413 32.9686C34.1414 32.1989 34.2932 31.4368 34.5879 30.7257C34.8826 30.0147 35.3145 29.3686 35.8589 28.8245C36.4033 28.2803 37.0495 27.8487 37.7607 27.5543C38.4718 27.2599 39.2341 27.1085 40.0038 27.1086C40.7735 27.1088 41.5356 27.2606 42.2467 27.5553C42.9577 27.85 43.6038 28.2819 44.1479 28.8262C44.6921 29.3706 45.1237 30.0169 45.4181 30.728C45.7125 31.4392 45.8639 32.2014 45.8638 32.9711C45.8634 34.5256 45.2456 36.0163 44.1462 37.1153C43.0467 38.2143 41.5558 38.8315 40.0013 38.8311C38.4468 38.8308 36.9561 38.213 35.8571 37.1135C34.7581 36.0141 34.1409 34.5231 34.1413 32.9686Z" fill="#FF8823"/>
<path d="M41.1725 34.1412V29.4537C41.1725 28.8087 40.645 28.2812 40 28.2812C39.355 28.2812 38.8275 28.8087 38.8275 29.4537V32.97H37.655C37.01 32.97 36.4825 33.4975 36.4825 34.1425C36.4825 34.7875 37.01 35.315 37.655 35.315H40C40.3107 35.3134 40.6081 35.1891 40.8277 34.9693C41.0473 34.7495 41.1712 34.4519 41.1725 34.1412Z" fill="#FF8823"/>
<path d="M76.3288 72.8125H75.1562V35.3125H75.9487C77.2675 35.3125 77.8613 34.3687 77.2725 33.2162L73.4263 25.69C72.8363 24.5375 71.275 23.5938 69.9575 23.5938H50.1337L41.1712 16.3387V13.4762C45.8587 17.2162 50.5462 5.41875 55.2337 9.16C50.5462 2.5425 45.8587 11.4613 41.1712 4.84375V3.6725C41.1725 3.0275 40.645 2.5 40 2.5C39.355 2.5 38.8275 3.0275 38.8275 3.6725V16.34L29.865 23.595H10.0437C8.725 23.595 7.16375 24.5387 6.575 25.6912L2.72875 33.2175C2.13875 34.37 2.73375 35.3138 4.0525 35.3138H4.845V72.8138H3.6725C3.36195 72.8144 3.06429 72.938 2.84459 73.1575C2.62488 73.3769 2.50099 73.6745 2.5 73.985V76.3288C2.50099 76.6393 2.62488 76.9368 2.84459 77.1563C3.06429 77.3758 3.36195 77.4993 3.6725 77.5H76.3288C76.6391 77.499 76.9364 77.3753 77.1559 77.1559C77.3753 76.9364 77.499 76.6391 77.5 76.3288V73.985C77.4993 73.6745 77.3758 73.3768 77.1563 73.1571C76.9368 72.9374 76.6393 72.8135 76.3288 72.8125ZM21.25 72.8125H7.1875V35.3125H18.3588C18.3813 35.5163 18.4212 35.71 18.4837 35.8862C18.79 36.7425 19.68 37.6562 21.2512 37.6562L21.25 72.8125ZM52.5 76.055H27.5V74.18H52.5V76.055ZM32.9688 72.8125V58.75H39.4137V72.8125H32.9688ZM40.5863 72.8125V58.75H47.0312V72.8125H40.5863ZM56.4062 72.8125H49.375V58.75H51.7188V56.3988C51.7188 56.3988 43.665 51.5325 41.11 49.7137C40.7823 49.4925 40.396 49.3743 40.0006 49.3743C39.6053 49.3743 39.2189 49.4925 38.8913 49.7137C36.3363 51.5325 28.2825 56.3988 28.2825 56.3988V58.75H30.625V72.8125H23.5938V35.3125H21.25C20.605 35.3125 20.4862 34.9762 20.9825 34.5675L39.095 19.65C39.3437 19.4462 39.6725 19.3438 40 19.3438C40.3275 19.3438 40.655 19.4462 40.905 19.65L59.0175 34.5675C59.5138 34.9762 59.395 35.3125 58.75 35.3125H56.4062V72.8125ZM72.8125 72.8125H58.75V37.6562C60.3213 37.6562 61.2113 36.7425 61.5175 35.8862C61.58 35.71 61.62 35.5163 61.6425 35.3125H72.8138L72.8125 72.8125Z" fill="#0D4E9E"/>
<path d="M36.5575 65.1951H38.2425V66.0463H36.5575V65.1951Z" fill="#0D4E9E"/>
<path d="M41.7575 65.1951H43.4425V66.0463H41.7575V65.1951Z" fill="#0D4E9E"/>
</svg>
